# xmcd
#
# Track frame offsets: 
#        150
#        14811
#        36473
#        55820
#        73838
#        94330
#        117402
#        137029
#        158373
#        177161
#        201612
#        226494
#        240730
#
# Disc length: 3485 seconds
#
# Revision: 26
# Processed by: cddbd v1.5.2PL0 Copyright (c) Steve Scherf et al.
# Submitted via: ExactAudioCopy v1.0b3
#
DISCID=c00d9b0d
DTITLE=Various Artist - MOBILE SUIT GUNDAM SEED DESTINY COMPLETE BEST
DYEAR=2005
DGENRE=JPop
TTITLE0=T.M.Revolution - Ignited -???????-
TTITLE1=???? - Reason
TTITLE2=HIGH and MIGHTY COLOR - PRIDE
TTITLE3=???? - Life Goes On
TTITLE4=??? - ??????
TTITLE5=Rie fu - I Wanna Go To A Place...
TTITLE6=CHEMISTRY - Wings of Words
TTITLE7=See-Saw - ????????
TTITLE8=T.M.Revolution - Meteor -?????-
TTITLE9=T.M.Revolution - vestige -???????-
TTITLE10=???? - Reason -NYLON Stay Cool Mix-
TTITLE11=HIGH and MIGHTY COLOR - Pride -?Phantom pain?norishirobreakme
TTITLE11=gamix-
TTITLE12=CHEMISTRY - Wings Of Words (alas de palabras)
EXTD=YEAR: 2005
EXTT0=
EXTT1=
EXTT2=
EXTT3=
EXTT4=
EXTT5=
EXTT6=
EXTT7=
EXTT8=
EXTT9=
EXTT10=
EXTT11=
EXTT12=
PLAYORDER=
